<svg t="1598325785300" viewBox="0 0 1024 1024" version="1.1" xmlns="http://www.w3.org/2000/svg" p-id="1944" xmlns:xlink="http://www.w3.org/1999/xlink" width="200" height="200"><defs><style type="text/css"></style></defs><path d="M856.217181 621.507066c-46.736441-55.648414-106.726743-99.783611-175.108157-127.623679 48.980551-45.476751 79.618339-110.394273 79.618339-182.467775 0-137.535423-111.589494-249.02668-249.263064-249.02668-50.233078 0-96.985892 14.838963-136.128377 40.370453-9.009188-4.585435-19.237133-7.163143-30.051433-7.163143-36.719296 0-66.479087 29.727045-66.479087 66.405409 0 13.294794 3.90289 25.677822 10.636245 36.06131-17.433044 34.003442-27.255761 72.52785-27.255761 113.353674 0 72.073502 30.636764 136.991024 79.634712 182.467775C177.784614 560.654117 62.049706 721.322399 61.545216 909.082714l1.2689 0c-0.943488 2.601244-1.447978 5.398964-1.447978 8.292873 0 13.854543 11.221576 24.913413 25.059745 24.913413l516.056386 0c13.741979 0 25.059745-11.155061 25.059745-24.913413 0-13.83817-11.220552-24.89704-25.059745-24.89704L111.891881 892.478548c7.578606-173.222203 125.509529-317.806159 285.250696-365.258914 0.325411 0.016373 0.650823 0.032746 0.976234 0.032746 13.806447 0 29.597085-6.569626 29.597085-24.913413 0-17.635659-17.383926-23.969924-30.946826-27.751041 0-0.097214 0.032746-0.194428 0.032746-0.292666-51.258431-36.068474-84.724637-95.571682-84.724637-162.879648 0-43.476187 13.96813-83.699284 37.662785-116.451222-12.115945-1.683339-21.449521-12.0832-21.449521-24.661679 0-13.757329 11.155061-24.905226 24.928762-24.905226 11.611455 0 21.400403 7.952112 24.150026 18.709107 35.498492-32.247448 82.724073-51.916417 134.535089-51.916417 110.36869 0 199.826118 89.197508 199.826118 199.225437 0 67.462484-33.646308 127.095653-85.098143 163.132404 0.031722 0.195451 0.064468 0.38988 0.097214 0.585331-13.610996 3.056616-32.490995 6.602372-32.490995 27.205619 0 21.644973 17.302061 24.783453 30.978549 24.89704 76.918857 22.848381 144.129608 68.235081 194.004529 128.485303 4.471848 7.658424 12.798491 12.81384 22.295795 12.81384 14.261818 0 25.823132-11.562337 25.823132-25.823132C867.340519 633.930003 862.949512 626.157993 856.217181 621.507066zM875.406219 759.619634 719.22718 759.619634c-13.969153 0-25.076118 11.139711-25.076118 24.89704 0 13.854543 11.220552 24.913413 25.076118 24.913413L935.510108 809.430086c13.969153 0 25.076118-11.155061 25.076118-24.913413 0-7.724938-3.495614-14.58723-8.992815-19.140942l-57.908898-57.908898c-9.854439-9.853415-25.595958-9.837042-35.32146-0.112564-9.80532 9.806343-9.691733 25.547863 0.098237 35.33681L875.406219 759.619634zM708.916347 853.141634c3.122107-1.39886 6.618744-2.178619 10.30981-2.178619L935.510108 850.963015c13.855566 0 25.076118 11.057847 25.076118 24.913413 0 13.740956-11.106965 24.89704-25.076118 24.89704L771.0208 900.773468l18.229177 18.229177c9.78997 9.788947 9.903557 25.530466 0.113587 35.320437-9.740852 9.725502-25.482371 9.741875-35.33681-0.098237l-58.754149-58.770522c-9.78997-9.788947-9.903557-25.530466-0.113587-35.320437C699.029162 856.247368 703.87554 853.922417 708.916347 853.141634z" p-id="1945" fill="#ffffff"></path></svg>